<?xml version="1.0" encoding="UTF-8"?>
<svg id="Layer_1" xmlns="http://www.w3.org/2000/svg" version="1.1" viewBox="150 236 740 120">
  <!-- Generator: Adobe Illustrator 30.0.0, SVG Export Plug-In . SVG Version: 2.1.1 Build 123)  -->
  <defs>
    <style>
      .st0 {
        fill: #fff;
      }
    </style>
  </defs>
  <path class="st0" d="M172.23,337.66v-81.45h38.17c5.66,0,10.71,1.13,15.13,3.38s7.87,5.31,10.36,9.19c2.48,3.88,3.72,8.34,3.72,13.38,0,5.67-1.24,10.63-3.72,14.89-2.49,4.27-5.93,7.58-10.36,9.95-4.42,2.37-9.46,3.55-15.13,3.55h-14.66v27.11h-23.51ZM214.93,337.66l-20.71-36.77,25.72-2.91,23.04,39.68h-28.04ZM195.73,293.09h10.71c1.94,0,3.55-.37,4.83-1.11,1.28-.73,2.25-1.76,2.91-3.08.66-1.32.99-2.91.99-4.77,0-1.7-.33-3.16-.99-4.36-.66-1.2-1.67-2.14-3.03-2.79-1.36-.66-3.08-.99-5.18-.99h-10.24v17.11Z"/>
  <path class="st0" d="M376.67,337.66v-81.45h25.13v60.04h34.91v21.41h-60.04Z"/>
  <path class="st0" d="M448.34,337.66v-81.45h25.13v60.04h34.91v21.41h-60.04Z"/>
  <path class="st0" d="M519.44,337.66v-20.36h14.31v-40.73h-14.31v-20.36h53.76v20.36h-14.31v40.73h14.31v20.36h-53.76Z"/>
  <path class="st0" d="M591.23,337.66v-81.45h22.46l37.47,51.78-5.35-1.63c-.39-3.1-.72-5.82-.99-8.14-.27-2.33-.51-4.48-.7-6.46-.19-1.98-.35-3.93-.47-5.88-.12-1.94-.17-4.07-.17-6.4v-23.27h24.2v81.45h-22.69l-41.31-57.02,9.42,2.79c.39,2.87.72,5.37.99,7.5.27,2.14.48,4.09.64,5.88.15,1.78.29,3.55.41,5.29.12,1.75.19,3.69.23,5.82.04,2.14.06,4.64.06,7.5v22.22h-24.2Z"/>
  <path class="st0" d="M725.16,338.82c-6.98,0-13.17-1.05-18.56-3.14-5.39-2.1-9.95-5.04-13.67-8.84-3.72-3.8-6.54-8.3-8.44-13.5-1.9-5.2-2.85-10.86-2.85-16.99s1.07-11.89,3.2-17.05c2.13-5.16,5.22-9.64,9.25-13.44,4.03-3.8,8.82-6.75,14.37-8.84,5.55-2.09,11.73-3.14,18.56-3.14,4.73,0,9.13.58,13.21,1.74,4.07,1.16,7.76,2.74,11.06,4.71,3.3,1.98,6.15,4.21,8.55,6.69l-14.89,15.83c-1.55-1.47-3.22-2.77-5-3.9-1.78-1.13-3.76-2.02-5.94-2.68-2.17-.66-4.61-.99-7.33-.99s-5.35.52-7.68,1.57c-2.33,1.05-4.35,2.5-6.05,4.37-1.71,1.86-3.05,4.09-4.02,6.69-.97,2.6-1.45,5.41-1.45,8.44s.5,5.84,1.51,8.43c1.01,2.6,2.4,4.83,4.19,6.69,1.78,1.86,3.92,3.31,6.4,4.36,2.48,1.05,5.2,1.57,8.15,1.57,2.01,0,3.86-.33,5.53-.99,1.67-.66,3.1-1.55,4.3-2.68s2.15-2.48,2.85-4.07c.7-1.59,1.05-3.32,1.05-5.18v-3.37l3.26,5.58h-20.71v-17.69h40.03c.08.85.18,2.25.29,4.19.11,1.94.19,3.86.23,5.76.04,1.9.06,3.2.06,3.9,0,5.2-.97,10.01-2.91,14.43-1.94,4.42-4.68,8.22-8.21,11.4-3.53,3.18-7.7,5.66-12.51,7.45-4.81,1.78-10.08,2.68-15.82,2.68Z"/>
  <path class="st0" d="M785.63,304.08l19.07-47.52h11.54l18.94,47.52h-14.53l-7.6-20.77c-.5-1.4-.93-2.6-1.29-3.6s-.68-1.94-.95-2.82c-.27-.88-.54-1.83-.81-2.85-.27-1.02-.54-2.23-.81-3.63h2.31c-.27,1.4-.54,2.61-.81,3.63-.27,1.02-.56,1.97-.85,2.85-.29.88-.63,1.82-1.02,2.82-.39.99-.83,2.19-1.32,3.6l-7.6,20.77h-14.25ZM795.13,297.02l4.28-9.98h22.06l3.87,9.98h-30.2Z"/>
  <path class="st0" d="M835.51,304.08v-11.88h8.35v-23.76h-8.35v-11.88h31.36v11.88h-8.35v23.76h8.35v11.88h-31.36Z"/>
  <path class="st0" d="M323.39,341.4c-5.38,0-10.83-1.37-15.82-4.25l-36.1-20.84c-15.16-8.75-20.38-28.21-11.62-43.37,4.24-7.35,11.09-12.6,19.28-14.79,8.19-2.19,16.75-1.07,24.09,3.17l36.1,20.84c15.16,8.75,20.37,28.21,11.62,43.37-5.88,10.17-16.57,15.87-27.55,15.87ZM287.36,278.88c-.86,0-1.73.11-2.59.34-2.56.69-4.7,2.33-6.03,4.63-2.74,4.74-1.11,10.83,3.64,13.57l36.1,20.84c4.74,2.74,10.83,1.11,13.57-3.63,2.74-4.74,1.11-10.83-3.64-13.57l-36.1-20.84c-1.53-.89-3.23-1.34-4.95-1.34Z"/>
  <rect class="st0" x="788.24" y="323.11" width="80.12" height="14.54"/>
</svg>
