<svg xmlns="http://www.w3.org/2000/svg" width="1600" height="900" viewBox="0 0 1600 900">
  <defs>
    <linearGradient id="bg" x1="0" y1="0" x2="1" y2="1">
      <stop offset="0" stop-color="#23163a"/>
      <stop offset=".55" stop-color="#150f23"/>
      <stop offset="1" stop-color="#0b0812"/>
    </linearGradient>
    <pattern id="grid" width="80" height="80" patternUnits="userSpaceOnUse">
      <path d="M80 0H0v80" fill="none" stroke="rgba(255,255,255,.05)" stroke-width="1"/>
    </pattern>
  </defs>
  <rect width="1600" height="900" fill="url(#bg)"/>
  <rect width="1600" height="900" fill="url(#grid)"/>
  <circle cx="1280" cy="190" r="260" fill="rgba(167,139,250,.12)"/>
  <circle cx="240" cy="760" r="320" fill="rgba(52,211,153,.07)"/>
  <g transform="translate(800,400)">
    <rect x="-110" y="-78" width="220" height="156" rx="20" fill="none" stroke="rgba(255,255,255,.35)" stroke-width="6"/>
    <circle cx="-52" cy="-26" r="22" fill="rgba(255,255,255,.35)"/>
    <path d="M-110 50 L-30 -22 L40 38 L78 6 L110 36 L110 58 a20 20 0 0 1 -20 20 L-90 78 a20 20 0 0 1 -20 -20 Z" fill="rgba(255,255,255,.3)"/>
  </g>
  <text x="800" y="588" text-anchor="middle" font-family="PingFang SC, sans-serif" font-size="34" font-weight="700" fill="rgba(255,255,255,.5)">替换图片 · 建议 1600 × 900</text>
  <text x="800" y="638" text-anchor="middle" font-family="PingFang SC, sans-serif" font-size="22" fill="rgba(255,255,255,.28)">&lt;img src="assets/your-image.jpg"&gt;</text>
</svg>
