<svg xmlns="http://www.w3.org/2000/svg" viewBox="0 0 1200 820">
<defs><linearGradient id="g" x1="0" x2="1"><stop stop-color="#fbbf24"/><stop offset=".55" stop-color="#60a5fa"/><stop offset="1" stop-color="#34d399"/></linearGradient><style>text{font-family:-apple-system,BlinkMacSystemFont,'PingFang SC','Microsoft YaHei',sans-serif}.box{fill:#111827;stroke:#475569;stroke-width:2}.t{fill:#fff;font-size:29px;font-weight:850}.s{fill:#aab2bf;font-size:19px}.v{fill:#fbbf24;font-size:17px;font-weight:900;letter-spacing:2px}</style></defs>
<rect width="1200" height="820" fill="#0b111c"/><path d="M130 650 C330 500 420 470 540 390 C690 292 805 210 1070 120" stroke="url(#g)" stroke-width="14" fill="none" stroke-linecap="round"/><text x="130" y="720" fill="#94a3b8" font-size="24">低复制：专家小时</text><text x="875" y="84" fill="#94a3b8" font-size="24">高复制：标准与平台</text><g transform="translate(70 520)"><rect class="box" width="270" height="125" rx="24"/><text class="v" x="24" y="38">01 SERVICE</text><text class="t" x="24" y="76">一对一家教</text><text class="s" x="24" y="106">高客单，难规模化</text></g><g transform="translate(250 370)"><rect class="box" width="270" height="125" rx="24"/><text class="v" x="24" y="38">02 CLASS</text><text class="t" x="24" y="76">训练营 / 课堂</text><text class="s" x="24" y="106">内容复用，交付可控</text></g><g transform="translate(470 250)"><rect class="box" width="270" height="125" rx="24"/><text class="v" x="24" y="38">03 IP</text><text class="t" x="24" y="76">教研与模板库</text><text class="s" x="24" y="106">授权、订阅、复购</text></g><g transform="translate(705 150)"><rect class="box" width="270" height="125" rx="24"/><text class="v" x="24" y="38">04 STANDARD</text><text class="t" x="24" y="76">评测与认证</text><text class="s" x="24" y="106">标准一旦建立可重复</text></g><g transform="translate(860 330)"><rect class="box" width="270" height="125" rx="24"/><text class="v" x="24" y="38">05 PLATFORM</text><text class="t" x="24" y="76">教务系统 SaaS</text><text class="s" x="24" y="106">软件边际成本最低</text></g>
</svg>