<svg xmlns="http://www.w3.org/2000/svg" viewBox="0 0 1200 820">
<defs>
  <linearGradient id="g" x1="0" x2="1" y1="0" y2="1"><stop stop-color="#ff5b2e"/><stop offset="1" stop-color="#fbbf24"/></linearGradient>
  <filter id="blur"><feGaussianBlur stdDeviation="18"/></filter>
  <style>
    text{font-family:-apple-system,BlinkMacSystemFont,'PingFang SC','Microsoft YaHei',sans-serif}
    .line{stroke:#64748b;stroke-width:3;opacity:.55}.node{fill:#111827;stroke:#cbd5e1;stroke-width:2}.hot{stroke:#fbbf24}.fire{stroke:#ff5b2e}.blue{stroke:#60a5fa}.violet{stroke:#c4b5fd}.green{stroke:#34d399}.title{fill:#fff;font-size:32px;font-weight:800}.sub{fill:#aab2bf;font-size:21px}.tag{fill:#fbbf24;font-size:18px;font-weight:800;letter-spacing:2px}
  </style>
</defs>
<rect width="1200" height="820" fill="#0b111c"/>
<circle cx="930" cy="100" r="220" fill="#ff5b2e" opacity=".13" filter="url(#blur)"/>
<circle cx="170" cy="720" r="260" fill="#60a5fa" opacity=".12" filter="url(#blur)"/>
<path class="line" d="M600 405 L215 170M600 405 L600 100M600 405 L985 170M600 405 L214 640M600 405 L600 720M600 405 L985 640"/>
<g transform="translate(430 270)"><rect width="340" height="270" rx="38" fill="url(#g)" opacity=".95"/><text x="170" y="104" text-anchor="middle" fill="#160904" font-size="42" font-weight="900">被辅导的人</text><text x="170" y="152" text-anchor="middle" fill="#160904" font-size="25" font-weight="800">一线团队 / 真实任务</text><text x="170" y="204" text-anchor="middle" fill="#3b160a" font-size="22">所有关系最终都要回到这里</text></g>
<g transform="translate(55 78)"><rect class="node hot" width="320" height="150" rx="28"/><text class="tag" x="30" y="44">PAYER</text><text class="title" x="30" y="88">出钱的人</text><text class="sub" x="30" y="124">预算、ROI、续费条件</text></g>
<g transform="translate(440 28)"><rect class="node fire" width="320" height="150" rx="28"/><text class="tag" x="30" y="44">SPONSOR</text><text class="title" x="30" y="88">发起的人</text><text class="sub" x="30" y="124">焦虑、承诺、面子</text></g>
<g transform="translate(825 78)"><rect class="node blue" width="320" height="150" rx="28"/><text class="tag" x="30" y="44">DECIDER</text><text class="title" x="30" y="88">拍板的人</text><text class="sub" x="30" y="124">资源、方向、下一步</text></g>
<g transform="translate(55 584)"><rect class="node green" width="320" height="150" rx="28"/><text class="tag" x="30" y="44">BOUNDARY</text><text class="title" x="30" y="88">设边界的人</text><text class="sub" x="30" y="124">IT、安全、法务、财务</text></g>
<g transform="translate(440 642)"><rect class="node violet" width="320" height="150" rx="28"/><text class="tag" x="30" y="44">NOISE</text><text class="title" x="30" y="88">旁观影响者</text><text class="sub" x="30" y="124">插话、比较、带偏方向</text></g>
<g transform="translate(825 584)"><rect class="node fire" width="320" height="150" rx="28"/><text class="tag" x="30" y="44">RIVAL</text><text class="title" x="30" y="88">隐性竞争者</text><text class="sub" x="30" y="124">原供应商、内部团队、旧流程</text></g>
</svg>