<svg xmlns="http://www.w3.org/2000/svg" viewBox="0 0 1200 820">
<defs><linearGradient id="a" x1="0" x2="1"><stop stop-color="#60a5fa"/><stop offset="1" stop-color="#34d399"/></linearGradient><style>text{font-family:-apple-system,BlinkMacSystemFont,'PingFang SC','Microsoft YaHei',sans-serif}.label{fill:#f8fafc;font-weight:850}.sub{fill:#aab2bf}.ring{fill:none;stroke:#334155;stroke-width:3}.arrow{fill:none;stroke:url(#a);stroke-width:10;stroke-linecap:round;stroke-dasharray:14 18}</style></defs>
<rect width="1200" height="820" fill="#0b111c"/><circle cx="600" cy="410" r="310" class="ring"/><circle cx="600" cy="410" r="230" class="ring" opacity=".7"/><circle cx="600" cy="410" r="140" fill="url(#a)" opacity=".92"/><text x="600" y="392" text-anchor="middle" fill="#061018" font-size="46" font-weight="900">组织学习</text><text x="600" y="444" text-anchor="middle" fill="#061018" font-size="25" font-weight="800">AI 转型的真实产物</text><path d="M320 210 C510 80 760 110 900 300" class="arrow"/><path d="M908 513 C800 725 510 760 306 595" class="arrow"/><g><circle cx="270" cy="240" r="86" fill="#111827" stroke="#fbbf24" stroke-width="3"/><text x="270" y="232" text-anchor="middle" class="label" font-size="28">诊断</text><text x="270" y="270" text-anchor="middle" class="sub" font-size="19">定位关系和状态</text></g><g><circle cx="600" cy="105" r="86" fill="#111827" stroke="#ff5b2e" stroke-width="3"/><text x="600" y="98" text-anchor="middle" class="label" font-size="28">示范</text><text x="600" y="136" text-anchor="middle" class="sub" font-size="19">做出第一份样板</text></g><g><circle cx="930" cy="240" r="86" fill="#111827" stroke="#60a5fa" stroke-width="3"/><text x="930" y="232" text-anchor="middle" class="label" font-size="28">陪练</text><text x="930" y="270" text-anchor="middle" class="sub" font-size="19">放进真实任务</text></g><g><circle cx="930" cy="580" r="86" fill="#111827" stroke="#c4b5fd" stroke-width="3"/><text x="930" y="572" text-anchor="middle" class="label" font-size="28">沉淀</text><text x="930" y="610" text-anchor="middle" class="sub" font-size="19">模板和评分标准</text></g><g><circle cx="600" cy="715" r="86" fill="#111827" stroke="#34d399" stroke-width="3"/><text x="600" y="707" text-anchor="middle" class="label" font-size="28">移交</text><text x="600" y="745" text-anchor="middle" class="sub" font-size="19">内部老师接手</text></g><g><circle cx="270" cy="580" r="86" fill="#111827" stroke="#fb923c" stroke-width="3"/><text x="270" y="572" text-anchor="middle" class="label" font-size="28">扩散</text><text x="270" y="610" text-anchor="middle" class="sub" font-size="19">从样板到组织</text></g>
</svg>