<svg xmlns="http://www.w3.org/2000/svg" viewBox="0 0 1200 820">
<defs><linearGradient id="g1" x1="0" x2="1"><stop stop-color="#ff5b2e"/><stop offset="1" stop-color="#fbbf24"/></linearGradient><style>text{font-family:-apple-system,BlinkMacSystemFont,'PingFang SC','Microsoft YaHei',sans-serif}.big{fill:#fff;font-size:34px;font-weight:850}.small{fill:#aab2bf;font-size:20px}.num{fill:#fbbf24;font-size:18px;font-weight:900;letter-spacing:2px}.box{fill:#111827;stroke:#475569;stroke-width:2}</style></defs>
<rect width="1200" height="820" fill="#0b111c"/><path d="M105 420 H1095" stroke="url(#g1)" stroke-width="8" stroke-linecap="round"/><g transform="translate(70 150)"><rect class="box" width="260" height="170" rx="28"/><text class="num" x="28" y="48">MODE 01</text><text class="big" x="28" y="94">企业诊断</text><text class="small" x="28" y="134">先看清问题和人</text></g><g transform="translate(365 78)"><rect class="box" width="260" height="170" rx="28"/><text class="num" x="28" y="48">MODE 02</text><text class="big" x="28" y="94">样板示范</text><text class="small" x="28" y="134">做出交付标准</text></g><g transform="translate(660 150)"><rect class="box" width="260" height="170" rx="28"/><text class="num" x="28" y="48">MODE 03</text><text class="big" x="28" y="94">实战陪跑</text><text class="small" x="28" y="134">把动作练进日常</text></g><g transform="translate(870 430)"><rect class="box" width="260" height="170" rx="28"/><text class="num" x="28" y="48">MODE 04</text><text class="big" x="28" y="94">托管冲刺</text><text class="small" x="28" y="134">先出结果再移交</text></g><g transform="translate(515 570)"><rect class="box" width="260" height="170" rx="28"/><text class="num" x="28" y="48">MODE 05</text><text class="big" x="28" y="94">信心建设</text><text class="small" x="28" y="134">让团队敢学敢试</text></g><g transform="translate(160 430)"><rect class="box" width="260" height="170" rx="28"/><text class="num" x="28" y="48">MODE 06</text><text class="big" x="28" y="94">系统共建</text><text class="small" x="28" y="134">模板、评测、治理</text></g><circle cx="600" cy="420" r="104" fill="url(#g1)"/><text x="600" y="406" text-anchor="middle" fill="#160904" font-size="34" font-weight="900">可交付</text><text x="600" y="450" text-anchor="middle" fill="#3b160a" font-size="23" font-weight="800">Offer Library</text>
</svg>