<svg viewBox="0 0 1040 400" xmlns="http://www.w3.org/2000/svg" font-family="-apple-system,system-ui,sans-serif" role="img">
<title>照片墙模板候选</title>
<rect x="39.0" y="44.0" width="212" height="119" rx="6" fill="var(--bg-frame,#11151c)"/>
<rect x="45.0" y="50.0" width="98.5" height="52.0" rx="3" fill="var(--bg-tile,#d4d9e0)" fill-opacity="1"/>
<rect x="146.5" y="50.0" width="98.5" height="52.0" rx="3" fill="var(--bg-tile,#d4d9e0)" fill-opacity="1"/>
<rect x="45.0" y="105.0" width="98.5" height="52.0" rx="3" fill="var(--bg-tile,#d4d9e0)" fill-opacity="1"/>
<rect x="146.5" y="105.0" width="98.5" height="52.0" rx="3" fill="var(--bg-tile,#d4d9e0)" fill-opacity="1"/>
<text x="145.0" y="36.0" text-anchor="middle" font-size="15" font-weight="600" fill="var(--text-1,#1a1a1a)">4 张 · 田字</text>
<text x="145.0" y="181.0" text-anchor="middle" font-size="12" fill="var(--text-2,#6b7280)">2×2 均等</text>
<rect x="289.0" y="44.0" width="212" height="119" rx="6" fill="var(--bg-frame,#11151c)"/>
<rect x="295.0" y="50.0" width="124.0" height="107.0" rx="3" fill="var(--accent-9,#3b82f6)" fill-opacity="0.85"/>
<rect x="422.0" y="50.0" width="73.0" height="33.7" rx="3" fill="var(--bg-tile,#d4d9e0)" fill-opacity="1"/>
<rect x="422.0" y="86.7" width="73.0" height="33.7" rx="3" fill="var(--bg-tile,#d4d9e0)" fill-opacity="1"/>
<rect x="422.0" y="123.3" width="73.0" height="33.7" rx="3" fill="var(--bg-tile,#d4d9e0)" fill-opacity="1"/>
<text x="395.0" y="36.0" text-anchor="middle" font-size="15" font-weight="600" fill="var(--text-1,#1a1a1a)">4 张 · hero+3</text>
<text x="395.0" y="181.0" text-anchor="middle" font-size="12" fill="var(--text-2,#6b7280)">1 大 + 3 竖排</text>
<rect x="539.0" y="44.0" width="212" height="119" rx="6" fill="var(--bg-frame,#11151c)"/>
<rect x="545.0" y="50.0" width="64.7" height="52.0" rx="3" fill="var(--bg-tile,#d4d9e0)" fill-opacity="1"/>
<rect x="612.7" y="50.0" width="64.7" height="52.0" rx="3" fill="var(--bg-tile,#d4d9e0)" fill-opacity="1"/>
<rect x="680.3" y="50.0" width="64.7" height="52.0" rx="3" fill="var(--bg-tile,#d4d9e0)" fill-opacity="1"/>
<rect x="545.0" y="105.0" width="64.7" height="52.0" rx="3" fill="var(--bg-tile,#d4d9e0)" fill-opacity="1"/>
<rect x="612.7" y="105.0" width="64.7" height="52.0" rx="3" fill="var(--bg-tile,#d4d9e0)" fill-opacity="1"/>
<rect x="680.3" y="105.0" width="64.7" height="52.0" rx="3" fill="var(--bg-tile,#d4d9e0)" fill-opacity="1"/>
<text x="645.0" y="36.0" text-anchor="middle" font-size="15" font-weight="600" fill="var(--text-1,#1a1a1a)">6 张 · 平铺</text>
<text x="645.0" y="181.0" text-anchor="middle" font-size="12" fill="var(--text-2,#6b7280)">3×2 均等</text>
<rect x="789.0" y="44.0" width="212" height="119" rx="6" fill="var(--bg-frame,#11151c)"/>
<rect x="795.0" y="50.0" width="132.3" height="70.3" rx="3" fill="var(--accent-9,#3b82f6)" fill-opacity="0.85"/>
<rect x="930.3" y="50.0" width="64.7" height="33.7" rx="3" fill="var(--bg-tile,#d4d9e0)" fill-opacity="1"/>
<rect x="930.3" y="86.7" width="64.7" height="33.7" rx="3" fill="var(--bg-tile,#d4d9e0)" fill-opacity="1"/>
<rect x="795.0" y="123.3" width="64.7" height="33.7" rx="3" fill="var(--bg-tile,#d4d9e0)" fill-opacity="1"/>
<rect x="862.7" y="123.3" width="64.7" height="33.7" rx="3" fill="var(--bg-tile,#d4d9e0)" fill-opacity="1"/>
<rect x="930.3" y="123.3" width="64.7" height="33.7" rx="3" fill="var(--bg-tile,#d4d9e0)" fill-opacity="1"/>
<text x="895.0" y="36.0" text-anchor="middle" font-size="15" font-weight="600" fill="var(--text-1,#1a1a1a)">6 张 · hero</text>
<text x="895.0" y="181.0" text-anchor="middle" font-size="12" fill="var(--text-2,#6b7280)">1 大 + 5 围</text>
<rect x="39.0" y="224.0" width="212" height="119" rx="6" fill="var(--bg-frame,#11151c)"/>
<rect x="45.0" y="230.0" width="47.8" height="52.0" rx="3" fill="var(--bg-tile,#d4d9e0)" fill-opacity="1"/>
<rect x="95.8" y="230.0" width="47.8" height="52.0" rx="3" fill="var(--bg-tile,#d4d9e0)" fill-opacity="1"/>
<rect x="146.5" y="230.0" width="47.8" height="52.0" rx="3" fill="var(--bg-tile,#d4d9e0)" fill-opacity="1"/>
<rect x="197.2" y="230.0" width="47.8" height="52.0" rx="3" fill="var(--bg-tile,#d4d9e0)" fill-opacity="1"/>
<rect x="45.0" y="285.0" width="47.8" height="52.0" rx="3" fill="var(--bg-tile,#d4d9e0)" fill-opacity="1"/>
<rect x="95.8" y="285.0" width="47.8" height="52.0" rx="3" fill="var(--bg-tile,#d4d9e0)" fill-opacity="1"/>
<rect x="146.5" y="285.0" width="47.8" height="52.0" rx="3" fill="var(--bg-tile,#d4d9e0)" fill-opacity="1"/>
<rect x="197.2" y="285.0" width="47.8" height="52.0" rx="3" fill="var(--bg-tile,#d4d9e0)" fill-opacity="1"/>
<text x="145.0" y="216.0" text-anchor="middle" font-size="15" font-weight="600" fill="var(--text-1,#1a1a1a)">8 张 · 平铺</text>
<text x="145.0" y="361.0" text-anchor="middle" font-size="12" fill="var(--text-2,#6b7280)">4×2 均等</text>
<rect x="289.0" y="224.0" width="212" height="119" rx="6" fill="var(--bg-frame,#11151c)"/>
<rect x="295.0" y="230.0" width="64.7" height="33.7" rx="3" fill="var(--bg-tile,#d4d9e0)" fill-opacity="1"/>
<rect x="362.7" y="230.0" width="64.7" height="33.7" rx="3" fill="var(--bg-tile,#d4d9e0)" fill-opacity="1"/>
<rect x="430.3" y="230.0" width="64.7" height="33.7" rx="3" fill="var(--bg-tile,#d4d9e0)" fill-opacity="1"/>
<rect x="295.0" y="266.7" width="64.7" height="33.7" rx="3" fill="var(--bg-tile,#d4d9e0)" fill-opacity="1"/>
<rect x="362.7" y="266.7" width="64.7" height="33.7" rx="3" fill="var(--bg-tile,#d4d9e0)" fill-opacity="1"/>
<rect x="430.3" y="266.7" width="64.7" height="33.7" rx="3" fill="var(--bg-tile,#d4d9e0)" fill-opacity="1"/>
<rect x="295.0" y="303.3" width="64.7" height="33.7" rx="3" fill="var(--bg-tile,#d4d9e0)" fill-opacity="1"/>
<rect x="362.7" y="303.3" width="64.7" height="33.7" rx="3" fill="var(--bg-tile,#d4d9e0)" fill-opacity="1"/>
<rect x="430.3" y="303.3" width="64.7" height="33.7" rx="3" fill="var(--bg-tile,#d4d9e0)" fill-opacity="1"/>
<text x="395.0" y="216.0" text-anchor="middle" font-size="15" font-weight="600" fill="var(--text-1,#1a1a1a)">9 张 · 平铺</text>
<text x="395.0" y="361.0" text-anchor="middle" font-size="12" fill="var(--text-2,#6b7280)">3×3 均等</text>
<rect x="539.0" y="224.0" width="212" height="119" rx="6" fill="var(--bg-frame,#11151c)"/>
<rect x="545.0" y="230.0" width="47.8" height="33.7" rx="3" fill="var(--bg-tile,#d4d9e0)" fill-opacity="1"/>
<rect x="595.8" y="230.0" width="47.8" height="33.7" rx="3" fill="var(--bg-tile,#d4d9e0)" fill-opacity="1"/>
<rect x="646.5" y="230.0" width="47.8" height="33.7" rx="3" fill="var(--bg-tile,#d4d9e0)" fill-opacity="1"/>
<rect x="697.2" y="230.0" width="47.8" height="33.7" rx="3" fill="var(--bg-tile,#d4d9e0)" fill-opacity="1"/>
<rect x="545.0" y="266.7" width="47.8" height="33.7" rx="3" fill="var(--bg-tile,#d4d9e0)" fill-opacity="1"/>
<rect x="595.8" y="266.7" width="47.8" height="33.7" rx="3" fill="var(--bg-tile,#d4d9e0)" fill-opacity="1"/>
<rect x="646.5" y="266.7" width="47.8" height="33.7" rx="3" fill="var(--bg-tile,#d4d9e0)" fill-opacity="1"/>
<rect x="697.2" y="266.7" width="47.8" height="33.7" rx="3" fill="var(--bg-tile,#d4d9e0)" fill-opacity="1"/>
<rect x="545.0" y="303.3" width="47.8" height="33.7" rx="3" fill="var(--bg-tile,#d4d9e0)" fill-opacity="1"/>
<rect x="595.8" y="303.3" width="47.8" height="33.7" rx="3" fill="var(--bg-tile,#d4d9e0)" fill-opacity="1"/>
<rect x="646.5" y="303.3" width="47.8" height="33.7" rx="3" fill="var(--bg-tile,#d4d9e0)" fill-opacity="1"/>
<rect x="697.2" y="303.3" width="47.8" height="33.7" rx="3" fill="var(--bg-tile,#d4d9e0)" fill-opacity="1"/>
<text x="645.0" y="216.0" text-anchor="middle" font-size="15" font-weight="600" fill="var(--text-1,#1a1a1a)">12 张 · 平铺</text>
<text x="645.0" y="361.0" text-anchor="middle" font-size="12" fill="var(--text-2,#6b7280)">4×3 均等</text>
</svg>
